<?xml version="1.0"?>
<svg xmlns="http://www.w3.org/2000/svg" xmlns:xlink="http://www.w3.org/1999/xlink" xmlns:svgjs="http://svgjs.com/svgjs" version="1.1" width="512" height="512" x="0" y="0" viewBox="0 0 227.406 227.406" style="enable-background:new 0 0 512 512" xml:space="preserve" class=""><g>
<g xmlns="http://www.w3.org/2000/svg">
	<path style="" d="M217.575,214.708l-65.188-67.793c16.139-15.55,26.209-37.356,26.209-61.485   C178.596,38.323,140.272,0,93.167,0C46.06,0,7.737,38.323,7.737,85.43c0,47.106,38.323,85.43,85.43,85.43   c17.574,0,33.922-5.339,47.518-14.473l66.078,68.718c1.473,1.531,3.439,2.302,5.407,2.302c1.87,0,3.743-0.695,5.197-2.094   C220.353,222.441,220.446,217.693,217.575,214.708z M22.737,85.43c0-38.835,31.595-70.43,70.43-70.43   c38.835,0,70.429,31.595,70.429,70.43s-31.594,70.43-70.429,70.43C54.332,155.859,22.737,124.265,22.737,85.43z" fill="#2673e8" data-original="#000002"/>
	<path style="" d="M131.414,77.93H54.919c-4.143,0-7.5,3.357-7.5,7.5s3.357,7.5,7.5,7.5h76.495   c4.143,0,7.5-3.357,7.5-7.5S135.557,77.93,131.414,77.93z" fill="#2673e8" data-original="#000002"/>
</g>
<g xmlns="http://www.w3.org/2000/svg">
</g>
<g xmlns="http://www.w3.org/2000/svg">
</g>
<g xmlns="http://www.w3.org/2000/svg">
</g>
<g xmlns="http://www.w3.org/2000/svg">
</g>
<g xmlns="http://www.w3.org/2000/svg">
</g>
<g xmlns="http://www.w3.org/2000/svg">
</g>
<g xmlns="http://www.w3.org/2000/svg">
</g>
<g xmlns="http://www.w3.org/2000/svg">
</g>
<g xmlns="http://www.w3.org/2000/svg">
</g>
<g xmlns="http://www.w3.org/2000/svg">
</g>
<g xmlns="http://www.w3.org/2000/svg">
</g>
<g xmlns="http://www.w3.org/2000/svg">
</g>
<g xmlns="http://www.w3.org/2000/svg">
</g>
<g xmlns="http://www.w3.org/2000/svg">
</g>
<g xmlns="http://www.w3.org/2000/svg">
</g>
</g></svg>
