<?xml version="1.0"?>
<svg xmlns="http://www.w3.org/2000/svg" xmlns:xlink="http://www.w3.org/1999/xlink" xmlns:svgjs="http://svgjs.com/svgjs" version="1.1" width="512" height="512" x="0" y="0" viewBox="0 0 512 512" style="enable-background:new 0 0 512 512" xml:space="preserve" class=""><g>
<g xmlns="http://www.w3.org/2000/svg">
	<g>
		<g>
			<path d="M451.026,282.919h-75.984c-11.046,0-20,8.954-20,20c0,11.046,8.954,20,20,20h27.715l-95.94,95.938     c-7.811,7.811-7.811,20.474,0,28.284c7.81,7.81,20.473,7.812,28.284,0.001l95.941-95.939v27.715c0,11.046,8.954,20,20,20     c11.046,0,20-8.954,20-20v-75.999c0-0.003,0-0.006,0-0.009C471.036,292.042,462.204,282.911,451.026,282.919z" fill="#2673e8" data-original="#000000" style=""/>
			<path d="M492.001,59h-118c-11.046,0-20,8.954-20,20v98h-98c-11.045,0-20,8.954-20,20v98h-98c-11.046,0-20,8.954-20,20v98H20     c-11.046,0-20,8.954-20,20c0,11.046,8.954,20,20,20h118.001c5.304,0,10.392-2.107,14.142-5.858     c3.751-3.75,5.858-8.838,5.858-14.142L158,335h98.001c5.304,0,10.392-2.107,14.142-5.858c3.751-3.75,5.858-8.838,5.858-14.142     L276,217h98c5.305,0,10.392-2.107,14.142-5.858c3.751-3.75,5.858-8.838,5.858-14.142l-0.001-98H492c11.046,0,20-8.954,20-20     S503.046,59,492.001,59z" fill="#2673e8" data-original="#000000" style=""/>
		</g>
	</g>
</g>
<g xmlns="http://www.w3.org/2000/svg">
</g>
<g xmlns="http://www.w3.org/2000/svg">
</g>
<g xmlns="http://www.w3.org/2000/svg">
</g>
<g xmlns="http://www.w3.org/2000/svg">
</g>
<g xmlns="http://www.w3.org/2000/svg">
</g>
<g xmlns="http://www.w3.org/2000/svg">
</g>
<g xmlns="http://www.w3.org/2000/svg">
</g>
<g xmlns="http://www.w3.org/2000/svg">
</g>
<g xmlns="http://www.w3.org/2000/svg">
</g>
<g xmlns="http://www.w3.org/2000/svg">
</g>
<g xmlns="http://www.w3.org/2000/svg">
</g>
<g xmlns="http://www.w3.org/2000/svg">
</g>
<g xmlns="http://www.w3.org/2000/svg">
</g>
<g xmlns="http://www.w3.org/2000/svg">
</g>
<g xmlns="http://www.w3.org/2000/svg">
</g>
</g></svg>
