<svg id="SvgjsSvg1020" width="288" height="288" xmlns="http://www.w3.org/2000/svg" version="1.1" xmlns:xlink="http://www.w3.org/1999/xlink" xmlns:svgjs="http://svgjs.com/svgjs"><defs id="SvgjsDefs1021"></defs><g id="SvgjsG1022"><svg xmlns="http://www.w3.org/2000/svg" width="288" height="288" enable-background="new 0 0 513.5 513.5" viewBox="0 0 513.5 513.5"><path d="m475.25 120c-20.678 0-37.5 16.822-37.5 37.5v22.5h-302v-52.5c0-34.522-26.358-63.315-60-67.08v-22.92c0-20.678-16.822-37.5-37.5-37.5s-37.5 16.822-37.5 37.5v240c0 18.11 12.904 33.261 30 36.745v13.255c0 12.563 8.472 23.178 20 26.452v51.541c-18.356 10.01-30 29.39-30 50.507 0 31.706 25.794 57.5 57.5 57.5 21.75 0 40.716-12.141 50.484-30h100.522v2.5c0 15.164 12.336 27.5 27.5 27.5s27.5-12.336 27.5-27.5v-2.5h100.511c9.767 17.859 28.733 30 50.484 30 31.706 0 57.5-25.794 57.5-57.5 0-21.154-11.634-40.493-30-50.502v-51.546c11.528-3.274 20-13.889 20-26.452v-13.255c17.096-3.484 30-18.635 30-36.745v-120c-.001-20.678-16.823-37.5-37.501-37.5zm-399.5 75h362v45h-362zm153.505 233.5h-100.52c-5.22-9.58-13.133-17.633-22.985-23.002v-50.498h123.505zm-163.505-73.5h25v101c0 6.893-5.607 12.5-12.5 12.5s-12.5-5.607-12.5-12.5zm12.5 143.5c-23.435 0-42.5-19.065-42.5-42.5 0-12.64 5.647-24.435 15-32.397v32.397c0 15.164 12.336 27.5 27.5 27.5s27.5-12.336 27.5-27.5v-32.406c9.358 7.955 15 19.74 15 32.406 0 23.435-19.065 42.5-42.5 42.5zm56.115-30c.897-4.027 1.385-8.207 1.385-12.5 0-4.261-.472-8.448-1.375-12.5h94.881v25zm134.89 17.5c0 6.893-5.607 12.5-12.5 12.5s-12.5-5.607-12.5-12.5v-131h25v21c0 4.142 3.357 7.5 7.5 7.5s7.5-3.358 7.5-7.5v-21h123.495v50.498c-9.852 5.37-17.765 13.422-22.985 23.002h-100.51v-22.5c0-4.142-3.357-7.5-7.5-7.5s-7.5 3.358-7.5 7.5zm153.495-131h25v101c0 6.893-5.607 12.5-12.5 12.5s-12.5-5.607-12.5-12.5zm-138.495 113.5v-25h94.871c-.904 4.052-1.375 8.239-1.375 12.5 0 4.293.488 8.473 1.385 12.5zm193.495-12.5c0 23.435-19.065 42.5-42.5 42.5s-42.5-19.065-42.5-42.5c0-12.666 5.642-24.452 15-32.406v32.406c0 15.164 12.337 27.5 27.5 27.5s27.5-12.336 27.5-27.5v-32.406c9.358 7.955 15 19.74 15 32.406zm-22.5-116h-397c-6.893 0-12.5-5.607-12.5-12.5v-12.5h422v12.5c0 6.893-5.607 12.5-12.5 12.5zm42.5-62.5c0 12.407-10.094 22.5-22.5 22.5h-437c-12.407 0-22.5-10.093-22.5-22.5v-240c0-12.407 10.093-22.5 22.5-22.5s22.5 10.093 22.5 22.5v74.736c0 4.142 3.358 7.5 7.5 7.5s7.5-3.358 7.5-7.5v-36.683c25.362 3.672 45 25.669 45 51.947v52.5h-45v-37.764c0-4.142-3.358-7.5-7.5-7.5s-7.5 3.358-7.5 7.5v105.264c0 4.142 3.358 7.5 7.5 7.5h377c4.143 0 7.5-3.358 7.5-7.5v-90c0-12.407 10.094-22.5 22.5-22.5s22.5 10.093 22.5 22.5z" fill="#c0d1f1" class="color000 svgShape"></path></svg></g></svg>