<?xml version="1.0"?>
<svg xmlns="http://www.w3.org/2000/svg" xmlns:xlink="http://www.w3.org/1999/xlink" xmlns:svgjs="http://svgjs.com/svgjs" version="1.1" width="512" height="512" x="0" y="0" viewBox="0 0 512 512" style="enable-background:new 0 0 512 512" xml:space="preserve" class=""><g><path xmlns="http://www.w3.org/2000/svg" d="m414 80h-316c-5.523 0-10-4.477-10-10v-26c0-24.301 19.699-44 44-44h248c24.301 0 44 19.699 44 44v26c0 5.523-4.477 10-10 10z" fill="#2572e8" data-original="#000000" style="" class=""/><path xmlns="http://www.w3.org/2000/svg" d="m458 112h-404c-29.776 0-54 24.224-54 54v188c0 29.776 24.224 54 54 54h34v-80c0-39.701 32.299-72 72-72h192c39.701 0 72 32.299 72 72v80h34c29.776 0 54-24.224 54-54v-188c0-29.776-24.224-54-54-54zm-361.98 120c-13.255 0-24.005-10.745-24.005-24s10.74-24 23.995-24h.01c13.255 0 24 10.745 24 24s-10.745 24-24 24z" fill="#2572e8" data-original="#000000" style="" class=""/><path xmlns="http://www.w3.org/2000/svg" d="m352 304h-192c-13.255 0-24 10.745-24 24v80 32c0 13.255 10.745 24 24 24h192c13.255 0 24-10.745 24-24v-32-80c0-13.255-10.745-24-24-24z" fill="#2572e8" data-original="#000000" style="" class=""/></g></svg>
