<svg id="SvgjsSvg1001" width="288" height="288" xmlns="http://www.w3.org/2000/svg" version="1.1" xmlns:xlink="http://www.w3.org/1999/xlink" xmlns:svgjs="http://svgjs.com/svgjs"><defs id="SvgjsDefs1002"></defs><g id="SvgjsG1008" transform="matrix(0.9167,0,0,0.9167,11.995200000000011,11.995200000000011)"><svg xmlns="http://www.w3.org/2000/svg" enable-background="new 0 0 512 512" viewBox="0 0 512 512" width="288" height="288"><path d="M256,346c-5.52,0-10,4.48-10,10c0,5.52,4.48,10,10,10s10-4.48,10-10C266,350.48,261.52,346,256,346z" fill="#c1d2f0" class="color000 svgShape"></path><path d="M482,0H30C13.458,0,0,13.458,0,30v346c0,16.542,13.458,30,30,30h152.521l-13.939,46H136c-16.542,0-30,13.458-30,30v20
			c0,5.522,4.477,10,10,10h280c5.522,0,10-4.478,10-10v-20c0-16.542-13.458-30-30-30h-32.581l-13.939-46H482
			c16.542,0,30-13.458,30-30V30C512,13.458,498.542,0,482,0z M376,472c5.514,0,10,4.486,10,10v10H126v-10c0-5.514,4.486-10,10-10
			C161.626,472,340.205,472,376,472z M189.48,452l13.939-46h105.162l13.939,46H189.48z M492,376c0,5.514-4.486,10-10,10
			c-25.605,0-434.677,0-452,0c-5.514,0-10-4.486-10-10V30c0-5.514,4.486-10,10-10h452c5.514,0,10,4.486,10,10V376z" fill="#c1d2f0" class="color000 svgShape"></path><path d="M462,40H50c-5.523,0-10,4.478-10,10v306c0,5.522,4.477,10,10,10h166c5.523,0,10-4.478,10-10c0-5.522-4.477-10-10-10H60V60
			h392v286H296c-5.522,0-10,4.478-10,10c0,5.522,4.478,10,10,10h166c5.522,0,10-4.478,10-10V50C472,44.478,467.522,40,462,40z" fill="#c1d2f0" class="color000 svgShape"></path><path d="M422,206h-79.819l-17.236-34.472c-1.761-3.521-5.417-5.681-9.36-5.52c-3.935,0.163-7.406,2.621-8.869,6.277l-29.136,72.84
			l-31.964-111.873c-1.175-4.111-4.834-7.021-9.104-7.24c-4.274-0.228-8.208,2.303-9.795,6.273l-29.861,74.653l-11.367-34.102
			c-1.279-3.837-4.744-6.526-8.778-6.813c-4.032-0.297-7.844,1.885-9.653,5.503L149.82,206H90c-5.523,0-10,4.478-10,10
			c0,5.522,4.477,10,10,10h66c3.788,0,7.25-2.14,8.944-5.528l9.203-18.406l12.366,37.097c1.327,3.981,4.999,6.71,9.193,6.834
			c4.192,0.133,8.02-2.386,9.579-6.282l29.136-72.84l31.964,111.873c1.175,4.111,4.834,7.021,9.104,7.24
			c0.172,0.009,0.343,0.013,0.514,0.013c4.069,0,7.758-2.476,9.282-6.286l31.729-79.324l10.042,20.081
			C328.75,223.86,332.212,226,336,226h86c5.522,0,10-4.478,10-10C432,210.478,427.522,206,422,206z" fill="#c1d2f0" class="color000 svgShape"></path></svg></g></svg>