<svg id="SvgjsSvg1001" width="288" height="288" xmlns="http://www.w3.org/2000/svg" version="1.1" xmlns:xlink="http://www.w3.org/1999/xlink" xmlns:svgjs="http://svgjs.com/svgjs"><defs id="SvgjsDefs1002"></defs><g id="SvgjsG1008" transform="matrix(0.9167,0,0,0.9167,11.995197775650041,11.995248110819773)"><svg xmlns="http://www.w3.org/2000/svg" width="288" height="288" enable-background="new 0 0 507.621 507.621" viewBox="0 0 507.621 507.621"><path d="m465.746 204.764-9.074-46.939c-4.654-24.07-25.825-41.541-50.341-41.541-24.517 0-45.688 17.47-50.341 41.541-.786 4.067 1.873 8.001 5.939 8.787 4.078.786 8.002-1.874 8.787-5.94 3.292-17.028 18.271-29.388 35.614-29.388s32.321 12.36 35.614 29.388l9.074 46.939c2.063 10.667-.721 21.592-7.637 29.972-6.915 8.38-17.112 13.187-27.978 13.187h-18.149c-10.865 0-21.063-4.807-27.978-13.187s-9.698-19.305-7.637-29.972l3.798-19.643c.787-4.067-1.873-8.001-5.939-8.788-4.074-.784-8.001 1.875-8.787 5.94l-3.798 19.643c-2.916 15.079 1.019 30.521 10.793 42.366 9.775 11.846 24.189 18.64 39.548 18.64h1.202v89.404c0 26.406-21.482 47.888-47.888 47.888-14.691 0-28.48-6.739-37.54-18.17 5.756-4.857 9.421-12.116 9.421-20.219 0-12.278-8.409-22.627-19.77-25.597v-3.79-57.015-172.319c11.36-2.969 19.77-13.319 19.77-25.597 0-14.515-11.752-26.332-26.239-26.449-13.259-32.329-45.254-53.905-80.331-53.905-20.831 0-40.975 7.491-56.719 21.092-13.934 12.037-23.64 28.16-27.793 45.911h-5.16c-4.142 0-7.5 3.358-7.5 7.5v33.288c-9.767.373-17.603 8.413-17.603 18.27v18.623c-8.562 3.407-16.645 8.088-24.064 13.981-3.243 2.577-3.784 7.294-1.208 10.538 2.577 3.244 7.294 3.784 10.538 1.208 14.337-11.389 31.616-17.409 49.97-17.409 43.605 0 79.188 34.897 80.35 78.227h-17.211c-4.142 0-7.5 3.358-7.5 7.5s3.358 7.5 7.5 7.5h17.267v17.204h-17.267c-4.142 0-7.5 3.358-7.5 7.5s3.358 7.5 7.5 7.5h17.267v13.74h-17.267c-4.142 0-7.5 3.358-7.5 7.5s3.358 7.5 7.5 7.5h17.267v17.204h-17.267c-4.142 0-7.5 3.358-7.5 7.5s3.358 7.5 7.5 7.5h17.267v17.797h-17.267c-4.142 0-7.5 3.358-7.5 7.5s3.358 7.5 7.5 7.5h17.267v17.204h-17.267c-4.142 0-7.5 3.358-7.5 7.5s3.358 7.5 7.5 7.5h17.267v7.839c0 44.335-36.07 80.405-80.405 80.405s-80.405-36.07-80.405-80.405v-7.839h32.053c25.102 0 45.523-20.421 45.523-45.522v-69.956c0-25.102-20.421-45.523-45.523-45.523h-32.055v-9.968c0-15.394 4.361-30.351 12.612-43.254 2.231-3.49 1.211-8.127-2.278-10.359-3.489-2.231-8.127-1.213-10.359 2.278-9.796 15.32-14.975 33.072-14.975 51.335v178.809c0 52.606 42.799 95.405 95.405 95.405s95.405-42.799 95.405-95.405v-178.811c0-40.167-24.953-74.613-60.169-88.659v-18.687c0-9.857-7.836-17.896-17.603-18.27v-33.287c0-4.015-3.158-7.284-7.124-7.481 3.821-13.333 11.481-25.391 22.117-34.579 13.021-11.249 29.682-17.444 46.914-17.444 28.478 0 54.502 17.19 65.83 43.107-7.311 4.712-12.167 12.921-12.167 22.247 0 11.683 7.615 21.614 18.14 25.109v172.807 57.017 4.278c-10.525 3.494-18.14 13.426-18.14 25.108 0 14.587 11.867 26.455 26.454 26.455.969 0 1.925-.056 2.868-.158 11.766 16.97 31.061 27.092 51.706 27.092 34.677 0 62.888-28.211 62.888-62.888v-89.404h1.947c15.358 0 29.772-6.794 39.548-18.64 9.774-11.845 13.709-27.287 10.793-42.366zm-377.759 53.611c16.831 0 30.523 13.692 30.523 30.523v69.956c0 16.83-13.692 30.522-30.523 30.522h-32.053v-26.744h27.894c4.142 0 7.5-3.358 7.5-7.5s-3.358-7.5-7.5-7.5h-27.894v-16.257h27.894c4.142 0 7.5-3.358 7.5-7.5s-3.358-7.5-7.5-7.5h-27.894v-16.257h27.894c4.142 0 7.5-3.358 7.5-7.5s-3.358-7.5-7.5-7.5h-27.894v-26.744h32.053zm45.72-176.371h3.817c.003 0 .006.001.01.001.005 0 .011-.001.016-.001h1.423v25.752h-5.266zm22.868 44.057v14.108c-6.525-1.415-13.294-2.167-20.236-2.167-6.897 0-13.665.722-20.236 2.13v-14.071c0-1.823 1.483-3.305 3.305-3.305h6.798 20.266 6.797c1.823 0 3.306 1.483 3.306 3.305zm139.421-57.161c6.316 0 11.455 5.138 11.455 11.455s-5.139 11.455-11.455 11.455c-6.315 0-11.454-5.139-11.454-11.455s5.138-11.455 11.454-11.455zm-11.454 295.773c0-6.316 5.139-11.455 11.454-11.455 6.316 0 11.455 5.139 11.455 11.455s-5.139 11.455-11.455 11.455-11.454-5.139-11.454-11.455z" fill="#c1d2f0" class="color000 svgShape"></path><path d="M423.41 180.791c4.143 0 7.5-3.358 7.5-7.5s-3.357-7.5-7.5-7.5h-31.877c-4.143 0-7.5 3.358-7.5 7.5s3.357 7.5 7.5 7.5zM375.518 202.51c0 4.142 3.357 7.5 7.5 7.5h48.906c4.143 0 7.5-3.358 7.5-7.5s-3.357-7.5-7.5-7.5h-48.906c-4.142 0-7.5 3.358-7.5 7.5z" fill="#c1d2f0" class="color000 svgShape"></path></svg></g></svg>